<svg width="536" height="52" viewBox="0 0 536 52" fill="none" xmlns="http://www.w3.org/2000/svg">
<path d="M29.3098 23.428L27.9018 32.26H36.4778C36.2218 34.2653 35.6458 35.972 34.7498 37.38H27.1338L25.2138 49.604C24.4884 49.9027 23.5498 50.1373 22.3978 50.308C21.2884 50.4787 20.2218 50.564 19.1978 50.564L21.2458 37.38L14.2058 37.444L12.2858 49.604C11.5604 49.9027 10.6218 50.1373 9.46975 50.308C8.31775 50.4787 7.22975 50.564 6.20575 50.564L8.25375 37.444H0.0617502C0.31775 35.4387 0.89375 33.6893 1.78975 32.196H9.08575L10.4938 23.428H1.91775C2.17375 21.5933 2.74975 19.8653 3.64575 18.244H11.2618L13.2458 5.828C13.9284 5.572 14.8458 5.35866 15.9978 5.188C17.1498 5.01733 18.2378 4.932 19.2618 4.932L17.1498 18.244L24.2538 18.308L26.2378 5.828C26.9204 5.572 27.8378 5.35866 28.9897 5.188C30.1418 5.01733 31.2084 4.932 32.1898 4.932L30.0778 18.308H38.3338C38.0778 20.228 37.5018 21.9347 36.6058 23.428H29.3098ZM23.4858 23.428H16.3818L14.9738 32.196L22.0778 32.26L23.4858 23.428ZM70.5693 20.1C70.1853 17.2413 69.3959 14.9587 68.2013 13.252C67.0493 11.5453 65.5559 10.692 63.7213 10.692C61.1186 10.692 59.0493 11.9293 57.5133 14.404C55.9773 16.836 55.2093 20.612 55.2093 25.732C55.2093 31.9187 56.4039 36.4413 58.7933 39.3C61.1826 42.1587 64.2759 43.588 68.0733 43.588C69.9079 43.588 71.5293 43.2467 72.9373 42.564C74.3453 41.8813 75.3479 41.0707 75.9453 40.132C76.4573 40.516 76.8839 41.092 77.2253 41.86C77.5666 42.628 77.7373 43.332 77.7373 43.972C77.7373 45.0387 77.1826 46.148 76.0732 47.3C75.0066 48.452 73.4493 49.4333 71.4013 50.244C69.3533 51.012 66.9853 51.396 64.2973 51.396C60.5426 51.396 57.1079 50.5213 53.9933 48.772C50.9213 47.0227 48.4679 44.3773 46.6333 40.836C44.7986 37.2947 43.8813 33.0067 43.8813 27.972C43.8813 23.0653 44.7133 18.9053 46.3773 15.492C48.0413 12.036 50.3666 9.45466 53.3533 7.748C56.3826 5.99866 59.9026 5.124 63.9133 5.124C64.8519 5.124 65.9186 5.252 67.1133 5.508C68.3079 5.764 69.3533 6.10533 70.2493 6.532C70.8893 6.23333 71.8279 5.93467 73.0653 5.636C74.3026 5.33733 75.2626 5.16667 75.9453 5.124C77.1826 8.15333 77.8013 13.1453 77.8013 20.1H70.5693ZM95.9333 51.332C91.2399 51.332 87.4853 49.86 84.6693 46.916C81.8533 43.9293 80.4453 39.684 80.4453 34.18C80.4453 30.2547 81.1066 26.9053 82.4293 24.132C83.7946 21.3587 85.6933 19.268 88.1253 17.86C90.5573 16.452 93.3733 15.748 96.5733 15.748C99.6453 15.748 102.333 16.4307 104.637 17.796C106.984 19.1187 108.797 21.0813 110.077 23.684C111.4 26.2867 112.061 29.444 112.061 33.156C112.061 37.0387 111.379 40.3453 110.013 43.076C108.691 45.8067 106.813 47.876 104.381 49.284C101.949 50.6493 99.1333 51.332 95.9333 51.332ZM96.4453 46.724C97.9386 46.724 99.0479 45.8707 99.7733 44.164C100.499 42.4573 100.861 39.3 100.861 34.692C100.861 30.8093 100.669 27.8227 100.285 25.732C99.9013 23.6413 99.3679 22.212 98.6853 21.444C98.0026 20.676 97.1279 20.292 96.0613 20.292C94.5679 20.292 93.4373 21.1453 92.6693 22.852C91.9439 24.5587 91.5813 27.7587 91.5813 32.452C91.5813 36.292 91.7733 39.2573 92.1573 41.348C92.5413 43.396 93.0746 44.804 93.7573 45.572C94.4826 46.34 95.3786 46.724 96.4453 46.724ZM149.303 48.9C148.705 49.668 147.809 50.2653 146.615 50.692C145.42 51.1187 144.14 51.332 142.775 51.332C141.537 51.332 140.321 51.0547 139.127 50.5C137.932 49.988 137.1 49.2627 136.631 48.324C135.777 49.4333 134.711 50.2013 133.431 50.628C132.193 51.0973 130.636 51.332 128.759 51.332C126.369 51.332 124.172 50.7347 122.167 49.54C120.161 48.3027 118.54 46.4893 117.303 44.1C116.108 41.668 115.511 38.7027 115.511 35.204C115.511 31.0653 116.279 27.5453 117.815 24.644C119.393 21.7427 121.463 19.5667 124.023 18.116C126.583 16.6653 129.399 15.94 132.471 15.94C133.196 15.94 134.497 16.0253 136.375 16.196L136.183 12.356V9.156C136.183 8.08933 135.884 7.3 135.287 6.788C134.689 6.276 133.559 6.02 131.895 6.02V3.396C133.388 2.58533 135.329 1.86 137.719 1.22C140.108 0.579998 141.985 0.259998 143.351 0.259998C144.332 0.259998 145.036 0.494665 145.463 0.963997C145.932 1.39066 146.167 2.13733 146.167 3.204V43.396C146.167 45.4867 147.191 46.724 149.239 47.108L149.303 48.9ZM133.175 45.892C134.497 45.892 135.5 45.508 136.183 44.74V22.34C135.287 21.1027 134.092 20.484 132.599 20.484C130.721 20.484 129.207 21.4653 128.055 23.428C126.945 25.3907 126.391 28.5693 126.391 32.964C126.391 37.188 127.009 40.4093 128.247 42.628C129.527 44.804 131.169 45.892 133.175 45.892ZM169.199 43.972C171.887 43.972 174.383 43.1187 176.687 41.412C177.028 41.7533 177.327 42.2653 177.583 42.948C177.839 43.6307 177.967 44.228 177.967 44.74C177.967 45.508 177.455 46.404 176.431 47.428C175.407 48.4093 173.977 49.2627 172.143 49.988C170.351 50.7133 168.324 51.076 166.063 51.076C162.905 51.076 160.132 50.3933 157.743 49.028C155.396 47.6627 153.583 45.6787 152.303 43.076C151.023 40.4733 150.383 37.4013 150.383 33.86C150.383 30.2333 151.065 27.0547 152.431 24.324C153.839 21.5933 155.759 19.5027 158.191 18.052C160.623 16.5587 163.375 15.812 166.447 15.812C170.329 15.812 173.423 16.9427 175.727 19.204C178.031 21.4653 179.183 24.6013 179.183 28.612C179.183 30.4893 178.884 31.9827 178.287 33.092C177.689 34.1587 176.623 34.692 175.087 34.692H161.263C161.519 40.8787 164.164 43.972 169.199 43.972ZM166.063 20.228C164.74 20.228 163.631 20.9747 162.735 22.468C161.839 23.9187 161.348 26.372 161.263 29.828H167.727C168.409 29.828 168.857 29.5933 169.071 29.124C169.284 28.6547 169.391 27.9293 169.391 26.948C169.391 24.4307 169.092 22.6813 168.495 21.7C167.897 20.7187 167.087 20.228 166.063 20.228ZM209.132 20.1C208.748 17.2413 207.958 14.9587 206.764 13.252C205.612 11.5453 204.118 10.692 202.284 10.692C199.681 10.692 197.612 11.9293 196.076 14.404C194.54 16.836 193.772 20.612 193.772 25.732C193.772 31.9187 194.966 36.4413 197.356 39.3C199.745 42.1587 202.838 43.588 206.636 43.588C208.47 43.588 210.092 43.2467 211.5 42.564C212.908 41.8813 213.91 41.0707 214.508 40.132C215.02 40.516 215.446 41.092 215.788 41.86C216.129 42.628 216.3 43.332 216.3 43.972C216.3 45.0387 215.745 46.148 214.636 47.3C213.569 48.452 212.012 49.4333 209.964 50.244C207.916 51.012 205.548 51.396 202.86 51.396C199.105 51.396 195.67 50.5213 192.556 48.772C189.484 47.0227 187.03 44.3773 185.196 40.836C183.361 37.2947 182.444 33.0067 182.444 27.972C182.444 23.0653 183.276 18.9053 184.94 15.492C186.604 12.036 188.929 9.45466 191.916 7.748C194.945 5.99866 198.465 5.124 202.476 5.124C203.414 5.124 204.481 5.252 205.676 5.508C206.87 5.764 207.916 6.10533 208.812 6.532C209.452 6.23333 210.39 5.93467 211.628 5.636C212.865 5.33733 213.825 5.16667 214.508 5.124C215.745 8.15333 216.364 13.1453 216.364 20.1H209.132ZM254.656 48.772C253.12 50.18 250.773 50.884 247.616 50.884C243.306 50.884 241.152 49.54 241.152 46.852V26.244C241.152 24.8787 240.768 23.8333 240 23.108C239.274 22.34 238.272 21.956 236.992 21.956C236.138 21.956 235.242 22.2333 234.304 22.788C233.408 23.3427 232.746 24.0467 232.32 24.9V43.588C232.32 44.8253 232.576 45.7213 233.088 46.276C233.642 46.788 234.56 47.044 235.84 47.044C235.84 48.3667 235.349 49.5187 234.368 50.5H220.224C219.242 49.5187 218.752 48.3667 218.752 47.044C220.032 47.044 220.928 46.788 221.44 46.276C221.994 45.7213 222.272 44.8253 222.272 43.588V8.9C222.272 7.83333 221.973 7.044 221.376 6.532C220.778 6.02 219.648 5.764 217.984 5.764V3.14C219.52 2.32933 221.461 1.62533 223.808 1.028C226.197 0.387997 228.117 0.067997 229.568 0.067997C230.549 0.067997 231.253 0.302664 231.68 0.771999C232.106 1.19867 232.32 1.94533 232.32 3.012V15.62L232.192 20.74C233.344 19.2467 234.794 18.0307 236.544 17.092C238.336 16.1533 240.298 15.684 242.432 15.684C245.418 15.684 247.68 16.4947 249.216 18.116C250.752 19.6947 251.52 22.0413 251.52 25.156V43.076C251.52 44.1427 251.776 44.996 252.288 45.636C252.842 46.276 253.61 46.7027 254.592 46.916L254.656 48.772ZM276.324 43.972C279.012 43.972 281.508 43.1187 283.812 41.412C284.153 41.7533 284.452 42.2653 284.708 42.948C284.964 43.6307 285.092 44.228 285.092 44.74C285.092 45.508 284.58 46.404 283.556 47.428C282.532 48.4093 281.102 49.2627 279.268 49.988C277.476 50.7133 275.449 51.076 273.188 51.076C270.03 51.076 267.257 50.3933 264.868 49.028C262.521 47.6627 260.708 45.6787 259.428 43.076C258.148 40.4733 257.508 37.4013 257.508 33.86C257.508 30.2333 258.19 27.0547 259.556 24.324C260.964 21.5933 262.884 19.5027 265.316 18.052C267.748 16.5587 270.5 15.812 273.572 15.812C277.454 15.812 280.548 16.9427 282.852 19.204C285.156 21.4653 286.308 24.6013 286.308 28.612C286.308 30.4893 286.009 31.9827 285.412 33.092C284.814 34.1587 283.748 34.692 282.212 34.692H268.388C268.644 40.8787 271.289 43.972 276.324 43.972ZM273.188 20.228C271.865 20.228 270.756 20.9747 269.86 22.468C268.964 23.9187 268.473 26.372 268.388 29.828H274.852C275.534 29.828 275.982 29.5933 276.196 29.124C276.409 28.6547 276.516 27.9293 276.516 26.948C276.516 24.4307 276.217 22.6813 275.62 21.7C275.022 20.7187 274.212 20.228 273.188 20.228ZM293.345 9.54C293.345 8.47333 293.025 7.684 292.385 7.172C291.787 6.61733 290.657 6.34 288.993 6.34V3.78C290.529 2.92666 292.47 2.20133 294.817 1.604C297.163 1.00666 299.062 0.707996 300.513 0.707996C301.537 0.707996 302.262 0.921331 302.689 1.348C303.115 1.77467 303.329 2.52133 303.329 3.588V43.524C303.329 44.8467 303.585 45.764 304.097 46.276C304.651 46.788 305.569 47.044 306.849 47.044C306.849 48.2387 306.337 49.3907 305.313 50.5H291.297C290.315 49.4333 289.825 48.2813 289.825 47.044C291.062 47.044 291.958 46.788 292.513 46.276C293.067 45.7213 293.345 44.804 293.345 43.524V9.54ZM313.782 9.54C313.782 8.47333 313.462 7.684 312.822 7.172C312.225 6.61733 311.094 6.34 309.43 6.34V3.78C310.966 2.92666 312.908 2.20133 315.254 1.604C317.601 1.00666 319.5 0.707996 320.95 0.707996C321.974 0.707996 322.7 0.921331 323.126 1.348C323.553 1.77467 323.766 2.52133 323.766 3.588V43.524C323.766 44.8467 324.022 45.764 324.534 46.276C325.089 46.788 326.006 47.044 327.286 47.044C327.286 48.2387 326.774 49.3907 325.75 50.5H311.734C310.753 49.4333 310.262 48.2813 310.262 47.044C311.5 47.044 312.396 46.788 312.95 46.276C313.505 45.7213 313.782 44.804 313.782 43.524V9.54ZM330.252 41.476C330.252 38.6173 331.19 36.356 333.068 34.692C334.945 33.028 337.718 32.196 341.388 32.196C342.668 32.196 343.969 32.324 345.292 32.58C346.657 32.836 347.766 33.1773 348.62 33.604V25.092C348.62 23.3853 348.193 22.1693 347.34 21.444C346.486 20.676 345.334 20.292 343.884 20.292C342.476 20.292 341.324 20.6333 340.428 21.316C341.238 21.572 341.836 22.02 342.22 22.66C342.646 23.2573 342.86 23.94 342.86 24.708C342.86 26.0733 342.369 27.1827 341.388 28.036C340.406 28.8893 339.169 29.316 337.676 29.316C336.054 29.316 334.753 28.8467 333.772 27.908C332.79 26.9693 332.3 25.7533 332.3 24.26C332.3 22.7667 332.812 21.3587 333.836 20.036C334.86 18.7133 336.417 17.6467 338.508 16.836C340.641 16.0253 343.265 15.62 346.38 15.62C350.604 15.62 353.804 16.4947 355.98 18.244C358.156 19.9507 359.244 22.468 359.244 25.796V42.756C359.244 44.804 360.225 46.0413 362.188 46.468V48.516C361.633 49.284 360.716 49.8813 359.436 50.308C358.156 50.7347 356.854 50.948 355.532 50.948C352.63 50.948 350.582 49.9453 349.388 47.94C348.406 48.7933 347.212 49.5187 345.804 50.116C344.396 50.6707 342.796 50.948 341.004 50.948C337.804 50.948 335.201 50.0733 333.196 48.324C331.233 46.532 330.252 44.2493 330.252 41.476ZM348.62 38.532C348.15 38.2333 347.574 37.9773 346.892 37.764C346.252 37.5507 345.633 37.444 345.036 37.444C343.841 37.444 342.86 37.828 342.092 38.596C341.324 39.3213 340.94 40.388 340.94 41.796C340.94 42.948 341.324 43.908 342.092 44.676C342.86 45.4013 343.884 45.764 345.164 45.764C345.804 45.764 346.422 45.6787 347.02 45.508C347.66 45.2947 348.193 45.0387 348.62 44.74V38.532ZM396.435 36.164C397.117 36.7613 397.672 37.6147 398.099 38.724C398.525 39.8333 398.739 41.0067 398.739 42.244C398.739 44.6333 397.864 46.6813 396.115 48.388C394.408 50.052 391.613 50.884 387.731 50.884C386.28 50.884 384.36 50.7133 381.971 50.372C379.325 50.0307 377.128 49.86 375.379 49.86C372.264 49.86 369.64 50.308 367.507 51.204L367.571 51.14L367.443 51.204L365.395 49.604C365.821 47.3 366.589 45.1667 367.699 43.204C368.808 41.2413 370.003 39.5133 371.283 38.02C372.563 36.484 374.269 34.6493 376.403 32.516C378.493 30.4253 380.136 28.676 381.331 27.268C382.568 25.8173 383.592 24.2387 384.403 22.532C385.213 20.7827 385.619 18.9053 385.619 16.9C385.619 14.468 385.043 12.6547 383.891 11.46C382.739 10.2227 381.203 9.604 379.283 9.604C376.808 9.604 374.888 10.5427 373.523 12.42C374.632 12.7187 375.528 13.3587 376.211 14.34C376.893 15.2787 377.235 16.2813 377.235 17.348C377.235 18.884 376.616 20.1427 375.379 21.124C374.184 22.1053 372.797 22.596 371.219 22.596C369.555 22.596 368.125 22.02 366.931 20.868C365.736 19.6733 365.139 18.0733 365.139 16.068C365.139 14.1053 365.8 12.292 367.123 10.628C368.488 8.964 370.387 7.64133 372.819 6.66C375.293 5.636 378.109 5.124 381.267 5.124C385.917 5.124 389.715 6.23333 392.659 8.452C395.645 10.628 397.139 13.8067 397.139 17.988C397.139 20.676 396.499 23.044 395.219 25.092C393.981 27.14 392.445 28.8893 390.611 30.34C388.776 31.748 386.344 33.3907 383.315 35.268C380.627 36.9747 378.493 38.4253 376.915 39.62C375.336 40.8147 374.035 42.1587 373.011 43.652C374.333 43.0973 375.891 42.628 377.683 42.244C379.475 41.8173 381.117 41.604 382.611 41.604H386.003C388.093 41.604 389.928 41.1347 391.507 40.196C393.128 39.2147 394.173 37.8707 394.643 36.164H396.435ZM421.776 51.14C409.616 51.14 403.536 43.6307 403.536 28.612C403.536 20.3773 405.136 14.4253 408.336 10.756C411.536 7.044 416.059 5.188 421.904 5.188C427.792 5.188 432.315 7.044 435.472 10.756C438.63 14.4253 440.208 20.3987 440.208 28.676C440.208 43.652 434.064 51.14 421.776 51.14ZM421.776 46.66C423.184 46.66 424.4 46.1907 425.424 45.252C426.448 44.2707 427.259 42.4573 427.856 39.812C428.454 37.1667 428.752 33.412 428.752 28.548C428.752 23.3427 428.454 19.3747 427.856 16.644C427.259 13.8707 426.47 12.0147 425.488 11.076C424.507 10.1373 423.312 9.668 421.904 9.668C420.496 9.668 419.28 10.1373 418.256 11.076C417.275 12.0147 416.464 13.892 415.824 16.708C415.227 19.4813 414.928 23.492 414.928 28.74C414.928 33.5187 415.227 37.2307 415.824 39.876C416.422 42.5213 417.211 44.3133 418.192 45.252C419.216 46.1907 420.411 46.66 421.776 46.66ZM476.31 36.164C476.992 36.7613 477.547 37.6147 477.974 38.724C478.4 39.8333 478.614 41.0067 478.614 42.244C478.614 44.6333 477.739 46.6813 475.99 48.388C474.283 50.052 471.488 50.884 467.606 50.884C466.155 50.884 464.235 50.7133 461.846 50.372C459.2 50.0307 457.003 49.86 455.254 49.86C452.139 49.86 449.515 50.308 447.382 51.204L447.446 51.14L447.318 51.204L445.27 49.604C445.696 47.3 446.464 45.1667 447.574 43.204C448.683 41.2413 449.878 39.5133 451.158 38.02C452.438 36.484 454.144 34.6493 456.278 32.516C458.368 30.4253 460.011 28.676 461.206 27.268C462.443 25.8173 463.467 24.2387 464.278 22.532C465.088 20.7827 465.494 18.9053 465.494 16.9C465.494 14.468 464.918 12.6547 463.766 11.46C462.614 10.2227 461.078 9.604 459.158 9.604C456.683 9.604 454.763 10.5427 453.398 12.42C454.507 12.7187 455.403 13.3587 456.086 14.34C456.768 15.2787 457.11 16.2813 457.11 17.348C457.11 18.884 456.491 20.1427 455.254 21.124C454.059 22.1053 452.672 22.596 451.094 22.596C449.43 22.596 448 22.02 446.806 20.868C445.611 19.6733 445.014 18.0733 445.014 16.068C445.014 14.1053 445.675 12.292 446.998 10.628C448.363 8.964 450.262 7.64133 452.694 6.66C455.168 5.636 457.984 5.124 461.142 5.124C465.792 5.124 469.59 6.23333 472.534 8.452C475.52 10.628 477.014 13.8067 477.014 17.988C477.014 20.676 476.374 23.044 475.094 25.092C473.856 27.14 472.32 28.8893 470.486 30.34C468.651 31.748 466.219 33.3907 463.19 35.268C460.502 36.9747 458.368 38.4253 456.79 39.62C455.211 40.8147 453.91 42.1587 452.886 43.652C454.208 43.0973 455.766 42.628 457.558 42.244C459.35 41.8173 460.992 41.604 462.486 41.604H465.878C467.968 41.604 469.803 41.1347 471.382 40.196C473.003 39.2147 474.048 37.8707 474.518 36.164H476.31ZM505.811 26.82C509.353 26.82 512.19 27.78 514.323 29.7C516.499 31.5773 517.587 34.3293 517.587 37.956C517.587 40.5587 516.777 42.8413 515.155 44.804C513.534 46.7667 511.273 48.3027 508.371 49.412C505.513 50.4787 502.27 51.012 498.643 51.012C495.657 51.012 492.99 50.628 490.643 49.86C488.297 49.092 486.441 47.9827 485.075 46.532C483.753 45.0813 483.091 43.3747 483.091 41.412C483.091 39.62 483.582 38.2333 484.563 37.252C485.587 36.2707 486.867 35.78 488.403 35.78C489.854 35.78 491.027 36.2067 491.923 37.06C492.862 37.9133 493.331 38.9587 493.331 40.196C493.331 40.8787 493.182 41.604 492.883 42.372C492.585 43.14 492.137 43.78 491.539 44.292C492.009 44.676 492.713 44.932 493.651 45.06C494.633 45.1453 495.955 45.188 497.619 45.188C500.222 45.188 502.227 44.548 503.635 43.268C505.043 41.9453 505.747 40.1533 505.747 37.892C505.747 35.4173 505.129 33.3267 503.891 31.62C502.654 29.9133 500.734 29.0387 498.131 28.996C496.51 29.4227 495.251 29.7213 494.355 29.892L493.075 26.052C496.873 25.0707 499.475 23.8547 500.883 22.404C502.291 20.9533 502.995 19.1613 502.995 17.028C502.995 14.98 502.398 13.316 501.203 12.036C500.051 10.756 498.515 10.116 496.595 10.116C495.529 10.116 494.611 10.2653 493.843 10.564C493.118 10.8627 492.457 11.396 491.859 12.164C492.457 12.42 492.969 12.868 493.395 13.508C493.865 14.1053 494.099 14.8093 494.099 15.62C494.099 16.6867 493.651 17.668 492.755 18.564C491.859 19.46 490.643 19.908 489.107 19.908C487.486 19.908 486.227 19.396 485.331 18.372C484.435 17.348 483.987 16.0253 483.987 14.404C483.987 12.5267 484.67 10.9053 486.035 9.54C487.401 8.132 489.235 7.06533 491.539 6.34C493.843 5.61466 496.382 5.252 499.155 5.252C503.678 5.252 507.347 6.16933 510.163 8.004C512.979 9.83866 514.387 12.3347 514.387 15.492C514.387 17.796 513.641 19.908 512.147 21.828C510.654 23.7053 508.073 25.3907 504.403 26.884L505.811 26.82ZM526.485 30.788L523.349 5.764C523.306 5.42266 523.285 4.97467 523.285 4.42C523.285 1.51866 524.778 0.067997 527.765 0.067997H530.517C533.546 0.067997 535.061 1.51866 535.061 4.42C535.061 4.63333 535.018 5.08133 534.933 5.764L531.733 30.788H526.485ZM535.637 44.996C535.637 46.8733 535.039 48.4093 533.845 49.604C532.65 50.756 531.071 51.332 529.109 51.332C527.189 51.332 525.631 50.756 524.437 49.604C523.285 48.4093 522.709 46.8733 522.709 44.996C522.709 43.076 523.285 41.54 524.437 40.388C525.631 39.236 527.189 38.66 529.109 38.66C531.071 38.66 532.65 39.236 533.845 40.388C535.039 41.54 535.637 43.076 535.637 44.996Z" fill="white"/>
</svg>
